<svg width="70" height="73" viewBox="0 0 70 73" fill="none" xmlns="http://www.w3.org/2000/svg">
<g filter="url(#filter0_d_20_225)">
<path d="M49.5833 40.8333C52.3905 40.823 55.1351 40.0027 57.4875 38.4708L58.3333 37.9166C58.8031 37.5981 59.2425 37.2369 59.6458 36.8375L60.2583 36.2541C60.7716 35.7305 61.24 35.1647 61.6583 34.5625L61.8333 34.3291C62.3057 33.6325 62.7063 32.8898 63.0292 32.1125C63.1341 31.8961 63.2219 31.6718 63.2917 31.4416C63.534 30.8454 63.729 30.231 63.875 29.6041L64.05 28.875C64.1606 28.0046 64.1996 27.1267 64.1667 26.25V5.83331L55.4167 14.5833H43.75L35 5.83331V26.25C35 30.1177 36.5365 33.827 39.2714 36.562C42.0063 39.2969 45.7156 40.8333 49.5833 40.8333ZM55.4167 20.4166C55.9935 20.4166 56.5574 20.5877 57.0371 20.9082C57.5167 21.2287 57.8906 21.6842 58.1113 22.2172C58.3321 22.7501 58.3898 23.3365 58.2773 23.9023C58.1648 24.4681 57.887 24.9878 57.4791 25.3957C57.0712 25.8036 56.5515 26.0814 55.9857 26.1939C55.4199 26.3065 54.8335 26.2487 54.3005 26.028C53.7676 25.8072 53.312 25.4334 52.9915 24.9537C52.6711 24.4741 52.5 23.9102 52.5 23.3333C52.5 22.5598 52.8073 21.8179 53.3543 21.2709C53.9013 20.7239 54.6431 20.4166 55.4167 20.4166ZM43.75 20.4166C44.3269 20.4166 44.8908 20.5877 45.3704 20.9082C45.8501 21.2287 46.2239 21.6842 46.4446 22.2172C46.6654 22.7501 46.7232 23.3365 46.6106 23.9023C46.4981 24.4681 46.2203 24.9878 45.8124 25.3957C45.4045 25.8036 44.8848 26.0814 44.319 26.1939C43.7532 26.3065 43.1668 26.2487 42.6338 26.028C42.1009 25.8072 41.6454 25.4334 41.3249 24.9537C41.0044 24.4741 40.8333 23.9102 40.8333 23.3333C40.8333 22.5598 41.1406 21.8179 41.6876 21.2709C42.2346 20.7239 42.9765 20.4166 43.75 20.4166Z" fill="#000080"/>
<path d="M32.0834 64.1666V49.5833H23.3334V64.1666H14.5834V34.7083C13.0999 34.4928 11.6823 33.9523 10.4319 33.1255C9.18145 32.2986 8.12911 31.2057 7.35004 29.925C6.40828 28.3742 5.88564 26.6053 5.83337 24.7916C5.88626 23.3406 6.23544 21.9156 6.85943 20.6045C7.48343 19.2934 8.36904 18.1238 9.46181 17.1676C10.5546 16.2114 11.8314 15.4889 13.2138 15.0445C14.5961 14.6001 16.0548 14.4431 17.5 14.5833C18.2783 14.6301 19.0576 14.5113 19.7865 14.2347C20.5155 13.958 21.1774 13.53 21.7287 12.9787C22.28 12.4274 22.7081 11.7654 22.9847 11.0365C23.2613 10.3075 23.3802 9.52822 23.3334 8.74998C23.3334 7.97643 23.6407 7.23457 24.1876 6.68758C24.7346 6.1406 25.4765 5.83331 26.25 5.83331C27.0236 5.83331 27.7655 6.1406 28.3124 6.68758C28.8594 7.23457 29.1667 7.97643 29.1667 8.74998C29.211 10.2941 28.9396 11.831 28.3689 13.2665C27.7983 14.702 26.9406 16.0059 25.8483 17.0982C24.7559 18.1905 23.4521 19.0483 22.0166 19.6189C20.5811 20.1895 19.0442 20.461 17.5 20.4166C12.2209 20.4166 11.6667 23.8 11.6667 24.8208C11.6667 25.8416 12.1917 29.1666 17.5 29.1666H32.3459C32.7743 31.6793 33.7464 34.068 35.1943 36.1658C36.6422 38.2636 38.5309 40.0198 40.7282 41.3115C42.9256 42.6033 45.3786 43.3994 47.9157 43.6443C50.4529 43.8891 53.0129 43.5768 55.4167 42.7291V64.1666H46.6667V49.5833H40.8334V64.1666H32.0834Z" fill="#000080"/>
</g>
<defs>
<filter id="filter0_d_20_225" x="-4" y="0" width="78" height="78" filterUnits="userSpaceOnUse" color-interpolation-filters="sRGB">
<feFlood flood-opacity="0" result="BackgroundImageFix"/>
<feColorMatrix in="SourceAlpha" type="matrix" values="0 0 0 0 0 0 0 0 0 0 0 0 0 0 0 0 0 0 127 0" result="hardAlpha"/>
<feOffset dy="4"/>
<feGaussianBlur stdDeviation="2"/>
<feComposite in2="hardAlpha" operator="out"/>
<feColorMatrix type="matrix" values="0 0 0 0 0 0 0 0 0 0 0 0 0 0 0 0 0 0 0.25 0"/>
<feBlend mode="normal" in2="BackgroundImageFix" result="effect1_dropShadow_20_225"/>
<feBlend mode="normal" in="SourceGraphic" in2="effect1_dropShadow_20_225" result="shape"/>
</filter>
</defs>
</svg>
