<svg width="871" height="1024" viewBox="0 0 871 1024" fill="none" xmlns="http://www.w3.org/2000/svg">
<path fill-rule="evenodd" clip-rule="evenodd" d="M0 1024L103.828 981.333C207.656 938.667 415.311 853.333 372.05 768C331.672 682.667 40.3775 597.333 20.1887 512C0 426.667 248.033 341.333 311.483 256C372.05 170.667 248.033 85.3333 184.583 42.6666L124.017 -2.47955e-05H871V42.6666C871 85.3333 871 170.667 871 256C871 341.333 871 426.667 871 512C871 597.333 871 682.667 871 768C871 853.333 871 938.667 871 981.333V1024H0Z" fill="#354D4C"/>
</svg>
